<svg xmlns="http://www.w3.org/2000/svg" xmlns:xlink="http://www.w3.org/1999/xlink" id="Livello_1" width="519.797" height="144.834" x="0" y="0" baseProfile="tiny" version="1.2" viewBox="0 0 519.797 144.834" xml:space="preserve"><g><path fill="#04559D" d="M134.323,126.517c11.614-13.412,18.658-30.894,18.658-50.024C152.98,34.246,118.732,0,76.488,0 C34.246,0,0,34.246,0,76.491c0,19.133,7.042,36.613,18.654,50.025H134.323L134.323,126.517z"/><g><path fill="#04559D" d="M174.996,125.168c0,0-20.152-57.322-21.235-60.416c-2.419-6.916-4.861-15.832-14.12-15.832l-1.432,0.016 c-0.209,0-0.436-0.114-0.63-0.443c-0.063-0.104-0.06-0.622-0.005-0.74c0.101-0.238,0.329-0.552,0.636-0.552h35.672 c0.46,0,0.768,0.961,0.768,1.447c0,3.004-7.408-0.023-7.408,6.304c0,3.449,11.863,38.234,11.863,38.234 c1.119,3.188,2.032,5.689,2.548,7.012c0.481-1.148,1.545-3.813,2.803-6.998v-0.014l0,0c2.744-6.959,6.396-16.443,6.873-17.963 c0.062-0.189,5.429-15.666,5.429-18.915c0-7.59-9.609-4.103-9.609-7.473c0-0.508,0.755-1.645,1.291-1.645h21.271 c0.933,0,0.983,1.092,0.983,1.355c0,1.475-1.108,0.833-2.176,1.584c-3.876,2.737-5.767,7.087-7.219,10.581L174.996,125.168z"/><g><path fill="#FFF" d="M136.356,47.193c-0.88,0-1.361,0.19-1.361,0.462c0,0.285,0.218,0.49,1.312,0.49 c1.681,0,10.059,1.758,10.059,9.476c0,8.44-5.126,19.252-19.858,22.353l-6.717-19.323c0,0-0.98-2.379-0.98-4.953 c0-3.386,2.231-4.357,4.308-4.848c0.853-0.203,1.566-0.361,2.042-0.66c0.682-0.442,0.923-1.157,0.923-1.775 c0-0.959-0.604-1.166-1.607-1.166c-1.734,0-14.185,0.024-14.912,0.024s-13.638-0.031-14.906-0.031 c-1.402,0-1.492,0.173-1.492,0.903c0,0.458,0.202,1.118,1.179,1.407c1.713,0.508,2.158,0.684,3.736,2.146 c1.408,1.298,2.062,3.215,2.062,3.215l9.594,25.461c-2.376-0.27-4.63-0.637-6.77-1.074L77.149,11.88c0,0-0.101-0.224-0.147-0.224 c-0.045,0-0.144,0.224-0.144,0.224L48.333,97.784c0,0-2.754,7.102-6.173,11.918c-3.712,5.219-6.584,6.291-8.75,6.676 c-2.165,0.373-3.451,0.674-3.451,2.426c0,1.836,1.752,1.92,2.443,1.92h28.9c0.842,0,1.715-0.689,1.715-1.723 c0-0.975-0.535-1.75-1.709-2.289c-0.761-0.334-1.753-0.508-2.629-0.828c-2.044-0.732-6.362-3.326-6.362-10.188 c0-3.904,0.891-6.303,0.891-6.303c3.143-9.191,7.14-12.502,11.536-15.799c3.251-2.439,8.207-4.17,12.162-4.17 c2.872,0,4.659,0.186,8.368,1.02c0.316,0.08,0.654,0.16,1.001,0.246c0.659,0.17,0.747,0.561,0.747,0.561s2.162,5.963,3.479,9.617 c1.318,3.652,4.957,13.746,4.957,13.746s1.487,3.518,1.487,6.307c0,2.988-1.601,4.51-3.645,5.131 c-0.932,0.289-2.857,0.254-4.196,0.717c-0.62,0.213-1.707,0.701-1.707,2.047c0,1.582,1.383,1.908,2.413,1.908h32.943 c0.662,0,1.436-0.254,1.887-0.801l1.906,5.08c0,0,0.033,0.102,0.103,0.102c0.064,0,0.096-0.102,0.096-0.102 s18.262-45.15,19.566-48.373c1.338-3.318,4.114-9.285,4.114-15.787C150.425,50.879,142.951,47.193,136.356,47.193z M83.928,74.263c0,0-4.9-0.935-7.915-0.935c-2.657,0-7.663,0.543-11.27,2.354c-4.911,2.477-6.862,5.133-6.947,5.203 l13.596-42.259c0,0,5.504,14.858,6.148,16.615l6.977,19.151C84.518,74.396,84.283,74.327,83.928,74.263z M123.541,117.071 c-1.682-0.178-2.96-0.367-4.184-0.867c-0.798-0.336-2.757-1.34-3.792-3.924c-1.025-2.57-10.46-27.219-10.46-27.219 c2.116,0.307,4.338,0.529,6.65,0.658l11.828,31.359L123.541,117.071z M143.715,74.579c-0.92,2.301-10.385,25.248-10.385,25.248 l-5.416-15.701c8.032-2.328,13.864-6.863,16.785-12.504h0.014c0.141-0.271,0.304-0.555,0.432-0.834 C145.144,70.788,144.638,72.274,143.715,74.579z"/></g><g><path fill="#04559D" d="M254.237,94.325c-2.443,0-4.042,15.516-19.583,15.516c-10.325,0-17.576-6.199-20.88-16.654V93.2 c-0.678-2.137-1.192-4.461-1.527-6.934c-0.462-3.447-0.195-5.221-0.031-6.713l42.702,0.012c0.181-1.531,0.303-3.102,0.303-4.693 c0-5.996-1.676-11.596-4.597-16.244l-0.304-0.722c-4.726-7.04-12.3-11.734-20.892-12.064 c-20.421,0.048-32.266,21.301-32.266,37.433c0,0.478-0.072,1.095,0.199,3.983c0.2,2.041,0.466,4.021,0.798,5.929V93.17 c3.121,17.899,12.019,28.511,28.925,28.511c4.611,0,9.993-1.545,14.716-4.164c6.067-3.367,13.51-15.718,13.51-21.351 C255.31,95.903,255.16,94.325,254.237,94.325z M212.142,72.481c-0.013-5.652,5.582-22.184,15.913-22.184 c11.178,0,12.44,12.695,12.432,18.413l0.079,6.389h-28.499L212.142,72.481z"/></g><path fill="#04559D" d="M372.505,111.101c0,7.489,9.84,5.418,9.84,8.104c0,0.655-0.119,1.504-1.474,1.504h-89.555 c-1.002,0-1.099-1.479-1.099-1.547c0-2.912,10.353-1.222,10.353-7.449v-50.48c0-4.344-4.646-7.443-8.413-7.443 c-5.31,0-11.433,6.162-16.292,10.026v47.847c0.003,6.305,9.703,4.561,9.703,7.498c0,0.896-0.922,1.547-1.289,1.547h-32.542 c-0.987,0-1.083-1.111-1.083-1.652c0-3.365,10.459-0.703,10.459-7.531V69.375c0-5.311-3.847-9.141-10.325-10.748l-0.417-0.722 l25.461-11.869l0.009,12.45c0,0-0.163,0.151,0.319,0.151c2.568,0,10.931-12.609,24.246-12.609c7.9,0,14.838,5.722,14.838,14.277 v50.778c0,3.906,4.34,5.934,6.784,5.934c2.479,0,6.891-1.887,6.891-5.307V66.854c0-5.333-8.155-8.093-10.568-9.11l25.565-11.701 v65.424c0.034,3.925,5.296,5.736,7.114,5.736c2.954,0,7.241-2.662,7.241-6.129V65.891c0-3.873-9.508-9.045-10.704-9.333 l25.132-10.521v20.165c3.335-7.752,8.617-20.172,18.479-20.172c6.745,0,10.574,6.035,10.574,11.735 c0,4.651-3.056,9.019-8.238,9.019c-6.354,0-5.609-7.564-10.381-7.564c-9.408,0-10.27,21.107-10.628,23.378V111.101 L372.505,111.101z"/><path fill="#04559D" d="M327.207,23.511c0-6.268,4.083-11.349,9.119-11.349c5.03,0,9.112,5.081,9.112,11.349 c0,6.265-4.082,11.346-9.112,11.346C331.29,34.856,327.207,29.775,327.207,23.511L327.207,23.511z"/><g><path fill="#04559D" d="M454.708,94.963c-0.085-0.254-0.16-0.379-0.414-0.614c-0.091-0.088-0.723-0.386-0.902,0 c-5.271,11.721-10.713,15.491-19.147,15.491c-10.248,0-17.921-7.799-21.062-16.653v-0.013c-1.007-2.854-1.548-5.815-1.554-8.668 v-4.952h42.817v-3.73c0.016-12.428-7.863-29.989-25.336-29.989c-21.831,0-32.596,21.58-32.596,38.114 c0,2.951,0.234,6.085,0.778,9.238c2.38,14.039,10.596,28.494,29.387,28.494c9.406,0,19.725-4.438,25.733-17.507 c1.484-3.226,2.092-5.18,2.293-6.465C454.98,95.864,454.791,95.249,454.708,94.963z M411.661,71.7 c-0.012-5.648,6.436-21.403,16.179-21.403c9.386,0,11.936,11.082,11.923,16.797v8.004h-28.102V71.7L411.661,71.7z"/></g></g></g><g><path fill="#5990C2" d="M466.536,113.528c1.193,0,2.196,0.412,3.009,1.238c0.813,0.824,1.219,1.82,1.219,2.988 s-0.413,2.166-1.238,2.99c-0.824,0.824-1.822,1.238-2.989,1.238c-1.168,0-2.165-0.414-2.989-1.238 c-0.826-0.824-1.238-1.822-1.238-2.99c0-1.193,0.412-2.195,1.238-3.008C464.371,113.935,465.368,113.528,466.536,113.528z"/><path fill="#5990C2" d="M490.759,85.001v28.031c0,2.184,0.158,3.639,0.476,4.361c0.318,0.725,0.787,1.264,1.41,1.619 c0.621,0.355,1.758,0.533,3.408,0.533v1.371h-16.948v-1.371c1.7,0,2.843-0.166,3.428-0.496c0.584-0.33,1.048-0.875,1.39-1.637 c0.344-0.762,0.515-2.223,0.515-4.381V99.589c0-3.783-0.114-6.233-0.343-7.352c-0.178-0.813-0.457-1.377-0.838-1.694 s-0.901-0.476-1.562-0.476c-0.711,0-1.575,0.189-2.59,0.57l-0.533-1.371l10.512-4.266H490.759z M487.598,66.758 c1.066,0,1.975,0.375,2.723,1.124c0.749,0.749,1.124,1.657,1.124,2.723s-0.375,1.98-1.124,2.742 c-0.748,0.762-1.656,1.143-2.723,1.143s-1.98-0.381-2.742-1.143c-0.762-0.761-1.143-1.675-1.143-2.742s0.375-1.974,1.123-2.723 C485.585,67.133,486.506,66.758,487.598,66.758z"/><path fill="#5990C2" d="M510.525,74.565V86.03h8.15v2.666h-8.15v22.623c0,2.26,0.324,3.783,0.971,4.57 c0.648,0.787,1.479,1.18,2.495,1.18c0.838,0,1.65-0.26,2.438-0.779c0.786-0.521,1.396-1.289,1.828-2.305h1.485 c-0.889,2.488-2.146,4.361-3.771,5.617c-1.625,1.258-3.301,1.885-5.027,1.885c-1.168,0-2.311-0.322-3.428-0.971 c-1.118-0.646-1.942-1.574-2.476-2.779c-0.533-1.207-0.8-3.066-0.8-5.58V88.696h-5.522v-1.258c1.396-0.558,2.824-1.504,4.285-2.837 c1.459-1.333,2.761-2.913,3.903-4.741c0.584-0.965,1.396-2.729,2.438-5.295H510.525z"/></g></svg>